<?xml version="1.0" encoding="UTF-8" standalone="no"?>
<!-- Created with Inkscape (http://www.inkscape.org/) -->

<svg
   xmlns:dc="http://purl.org/dc/elements/1.1/"
   xmlns:cc="http://creativecommons.org/ns#"
   xmlns:rdf="http://www.w3.org/1999/02/22-rdf-syntax-ns#"
   xmlns:svg="http://www.w3.org/2000/svg"
   xmlns="http://www.w3.org/2000/svg"
   xmlns:sodipodi="http://sodipodi.sourceforge.net/DTD/sodipodi-0.dtd"
   xmlns:inkscape="http://www.inkscape.org/namespaces/inkscape"
   version="1.1"
   id="svg815"
   width="200"
   height="34.615299"
   viewBox="0 0 520 89.999778"
   sodipodi:docname="spadebckgy.svg"
   inkscape:version="0.92.3 (2405546, 2018-03-11)">
  <metadata
     id="metadata821">
    <rdf:RDF>
      <cc:Work
         rdf:about="">
        <dc:format>image/svg+xml</dc:format>
        <dc:type
           rdf:resource="http://purl.org/dc/dcmitype/StillImage" />
        <dc:title></dc:title>
      </cc:Work>
    </rdf:RDF>
  </metadata>
  <defs
     id="defs819" />
  <sodipodi:namedview
     pagecolor="#ffffff"
     bordercolor="#666666"
     borderopacity="1"
     objecttolerance="10"
     gridtolerance="10"
     guidetolerance="10"
     inkscape:pageopacity="0"
     inkscape:pageshadow="2"
     inkscape:window-width="1920"
     inkscape:window-height="1017"
     id="namedview817"
     showgrid="false"
     inkscape:zoom="4.996888"
     inkscape:cx="71.249021"
     inkscape:cy="2.9708461"
     inkscape:window-x="-8"
     inkscape:window-y="-8"
     inkscape:window-maximized="1"
     inkscape:current-layer="g825"
     inkscape:snap-page="true"
     inkscape:pagecheckerboard="true"
     fit-margin-top="0"
     fit-margin-left="0"
     fit-margin-right="0"
     fit-margin-bottom="0"
     inkscape:measure-start="169.811,374.717"
     inkscape:measure-end="430.755,343.585"
     scale-x="2.6" />
  <g
     id="g825"
     transform="translate(-414.64658,-134.71985)">
    <rect
       style="opacity:1;fill:#8dccdb;fill-opacity:1;fill-rule:nonzero;stroke:#333333;stroke-width:1.31822538;stroke-linecap:round;stroke-linejoin:bevel;stroke-miterlimit:4;stroke-dasharray:none;stroke-opacity:1;paint-order:stroke markers fill"
       id="rect4521"
       width="520"
       height="89.239281"
       x="414.64658"
       y="135.1001" />
    <path
       style="fill:#0088aa;fill-opacity:1;stroke:none;stroke-width:0.18404153;stroke-opacity:1"
       d="m 660.86242,212.9821 c -5.00268,-0.96792 1.40068,-9.41145 2.3485,-10.87637 -12.12378,1.24598 -23.77808,-2.03132 -23.28897,-16.3075 1.57152,-12.10751 27.45761,-34.03122 34.55574,-41.07838 7.08437,7.77591 33.12851,30.65199 34.69321,41.26383 2.43201,15.78788 -16.44844,17.53983 -21.52003,16.52573 7.10782,10.5574 4.02531,10.30938 1.20374,11.31798 -2.37853,1.33451 -25.57047,1.26547 -27.99219,-0.84589 z m 24.77221,-2.8693 c -6.99967,-6.79053 -6.15306,-12.12163 -5.70189,-17.74826 12.1848,6.86782 23.2398,4.2646 23.32284,-6.46951 -0.50251,-8.44269 -21.36294,-24.60458 -29.10177,-32.14073 -7.55481,6.81182 -27.30136,22.46726 -27.58407,32.13008 0.21416,10.40641 12.90709,14.11825 24.00109,6.99619 1.24011,5.015 1.18089,10.88474 -4.79342,17.10397 3.76532,1.21223 14.69529,1.3521 19.85722,0.12802 z"
       id="path827"
       inkscape:connector-curvature="0"
       sodipodi:nodetypes="cccccccccccccccc" />
  </g>
</svg>
