<?xml version="1.0" encoding="UTF-8" standalone="no"?>
<svg
   xmlns:dc="http://purl.org/dc/elements/1.1/"
   xmlns:cc="http://creativecommons.org/ns#"
   xmlns:rdf="http://www.w3.org/1999/02/22-rdf-syntax-ns#"
   xmlns:svg="http://www.w3.org/2000/svg"
   xmlns="http://www.w3.org/2000/svg"
   xmlns:sodipodi="http://sodipodi.sourceforge.net/DTD/sodipodi-0.dtd"
   xmlns:inkscape="http://www.inkscape.org/namespaces/inkscape"
   width="151.84251"
   height="103.12125"
   viewBox="-18.458 6.58 11.609939 7.8837475"
   version="1.1"
   id="svg12"
   sodipodi:docname="mysql.svg"
   inkscape:version="0.92.4 (5da689c313, 2019-01-14)">
  <metadata
     id="metadata18">
    <rdf:RDF>
      <cc:Work
         rdf:about="">
        <dc:format>image/svg+xml</dc:format>
        <dc:type
           rdf:resource="http://purl.org/dc/dcmitype/StillImage" />
        <dc:title></dc:title>
      </cc:Work>
    </rdf:RDF>
  </metadata>
  <defs
     id="defs16" />
  <sodipodi:namedview
     pagecolor="#ffffff"
     bordercolor="#666666"
     borderopacity="1"
     objecttolerance="10"
     gridtolerance="10"
     guidetolerance="10"
     inkscape:pageopacity="0"
     inkscape:pageshadow="2"
     inkscape:window-width="2880"
     inkscape:window-height="1795"
     id="namedview14"
     showgrid="false"
     inkscape:zoom="4.3577611"
     inkscape:cx="81.531763"
     inkscape:cy="4.8081645"
     inkscape:window-x="-13"
     inkscape:window-y="-13"
     inkscape:window-maximized="1"
     inkscape:current-layer="svg12" />
  <path
     d="M -20.731889,4.4995265 H -4.184787 V 15.968602 h -16.547102 z"
     id="path2"
     inkscape:connector-curvature="0"
     style="fill:none;stroke-width:0.0865656" />
  <path
     d="m -15.666762,13.762305 h -0.447977 c -0.01584,-0.756151 -0.05947,-1.467027 -0.130801,-2.13315 h -0.004 l -0.68205,2.13315 h -0.341069 l -0.677981,-2.13315 h -0.0039 c -0.05029,0.639547 -0.08198,1.350597 -0.09513,2.13315 H -18.458 c 0.02632,-0.951616 0.09245,-1.843761 0.198148,-2.676522 h 0.555232 l 0.646212,1.966684 h 0.004 l 0.650195,-1.966684 h 0.531253 c 0.116344,0.975421 0.185077,1.867653 0.206199,2.676522 m 1.942792,-1.974735 c -0.182394,0.989791 -0.423046,1.708978 -0.721698,2.157908 -0.232688,0.345569 -0.487624,0.518527 -0.76524,0.518527 -0.07401,0 -0.16534,-0.02233 -0.273547,-0.06665 v -0.238661 c 0.05289,0.0076 0.114959,0.01195 0.186289,0.01195 0.129675,0 0.2339,-0.03567 0.313368,-0.107169 0.09505,-0.08709 0.142573,-0.18499 0.142573,-0.293284 0,-0.07427 -0.03705,-0.226109 -0.110977,-0.456027 l -0.491607,-1.52668 h 0.4401 l 0.352841,1.1418 c 0.07929,0.259264 0.112362,0.440273 0.09912,0.543372 0.192954,-0.515325 0.327737,-1.077222 0.404521,-1.685259 h 0.424258 z"
     id="path4"
     inkscape:connector-curvature="0"
     style="fill:#5d87a1;stroke-width:0.0865656" />
  <path
     d="m -7.760899,13.762305 h -1.272514 v -2.676522 h 0.428067 v 2.347053 h 0.844447 z m -1.605619,0.06466 -0.492039,-0.242816 c 0.04363,-0.03584 0.08535,-0.07462 0.122924,-0.119547 0.209142,-0.245674 0.313454,-0.608989 0.313454,-1.090208 0,-0.885479 -0.347475,-1.328435 -1.042683,-1.328435 -0.340895,0 -0.606825,0.112362 -0.79701,0.337173 -0.208969,0.245846 -0.31328,0.607863 -0.31328,1.086485 0,0.470484 0.09245,0.815621 0.277442,1.034545 0.169236,0.198322 0.424345,0.297613 0.7655,0.297613 0.127251,0 0.244028,-0.01558 0.350417,-0.047 l 0.640586,0.372924 z m -1.593932,-0.600246 c -0.10838,-0.174343 -0.16257,-0.454296 -0.16257,-0.840292 0,-0.673913 0.204727,-1.011259 0.614615,-1.011259 0.21425,0 0.37128,0.08068 0.471696,0.241691 0.108207,0.174603 0.162657,0.452045 0.162657,0.832674 0,0.679454 -0.204901,1.019224 -0.614529,1.019224 -0.214336,8.6e-5 -0.371366,-0.08033 -0.471869,-0.242038 m -0.801251,-0.206285 c 0,0.226975 -0.08328,0.413177 -0.249656,0.55904 -0.166552,0.145257 -0.389891,0.218059 -0.669758,0.218059 -0.261774,0 -0.515584,-0.08362 -0.761257,-0.250002 l 0.115045,-0.229831 c 0.211393,0.10587 0.40279,0.158501 0.574623,0.158501 0.161271,0 0.287311,-0.03575 0.378724,-0.106648 0.09133,-0.07116 0.145777,-0.170967 0.145777,-0.29718 0,-0.159021 -0.110891,-0.294929 -0.31432,-0.408763 -0.187588,-0.103013 -0.562763,-0.318388 -0.562763,-0.318388 -0.203343,-0.1482 -0.305144,-0.307308 -0.305144,-0.569429 0,-0.216933 0.07592,-0.392055 0.227841,-0.52528 0.152096,-0.133744 0.34834,-0.200399 0.588906,-0.200399 0.248443,0 0.474293,0.06657 0.677722,0.198322 l -0.103186,0.229918 c -0.173997,-0.07393 -0.345743,-0.110891 -0.515152,-0.110891 -0.137207,0 -0.243163,0.03298 -0.31683,0.0992 -0.07427,0.06596 -0.120067,0.150364 -0.120067,0.253896 0,0.158242 0.113228,0.295882 0.322197,0.411966 0.190098,0.103186 0.574623,0.322284 0.574623,0.322284 0.208536,0.147941 0.312675,0.305576 0.312675,0.56562"
     id="path6"
     inkscape:connector-curvature="0"
     style="fill:#f8981d;stroke-width:0.0865656" />
  <path
     d="m -7.2235,10.18931 c -0.258831,-0.0066 -0.45923,0.01948 -0.627427,0.09063 -0.04856,0.01939 -0.12578,0.01939 -0.132532,0.08076 0.02623,0.02597 0.02926,0.06787 0.05203,0.103706 0.03878,0.06467 0.106389,0.151663 0.16811,0.197023 0.06778,0.05194 0.135822,0.10336 0.207152,0.148634 0.125779,0.07782 0.268353,0.123096 0.39093,0.200659 0.07142,0.0451 0.1424,0.103445 0.213903,0.152009 0.03515,0.02588 0.05765,0.06787 0.103273,0.08406 v -0.0099 c -0.02285,-0.02909 -0.02934,-0.07116 -0.05177,-0.103532 l -0.09713,-0.09366 c -0.09384,-0.126039 -0.210441,-0.236064 -0.33622,-0.326439 -0.103533,-0.07133 -0.329988,-0.168283 -0.371973,-0.287571 l -0.0066,-0.0066 c 0.07116,-0.0067 0.155559,-0.03246 0.223166,-0.05228 0.110025,-0.029 0.210355,-0.02242 0.323236,-0.05142 0.05194,-0.01299 0.103446,-0.02926 0.155559,-0.04527 v -0.02917 c -0.05852,-0.05826 -0.100243,-0.135648 -0.161791,-0.190704 -0.164648,-0.1422269 -0.34609,-0.2813379 -0.533591,-0.3977689 -0.100416,-0.06484 -0.229572,-0.106562 -0.33648,-0.161704 -0.03852,-0.01948 -0.103446,-0.02909 -0.126126,-0.06146 -0.058,-0.07116 -0.09063,-0.164821 -0.132705,-0.249049 -0.09349,-0.177719 -0.184299,-0.374916 -0.264978,-0.56285 -0.05834,-0.126039 -0.09384,-0.251905 -0.164994,-0.368509 -0.333277,-0.5496916 -0.695208,-0.8826226 -1.251479,-1.2094076 -0.119547,-0.06804 -0.261774,-0.09704 -0.413697,-0.132705 l -0.242643,-0.01281 c -0.05177,-0.02268 -0.103619,-0.08423 -0.148806,-0.113314 -0.184558,-0.116345 -0.659717,-0.36851 -0.795452,-0.03558 -0.08743,0.210441 0.129329,0.417333 0.203776,0.524068 0.05497,0.0741 0.126213,0.158415 0.164648,0.242557 0.02277,0.05497 0.02917,0.113314 0.05194,0.1714 0.05177,0.142314 0.100156,0.3006416 0.168197,0.4334336 0.03549,0.06769 0.07419,0.138851 0.119547,0.20014 0.02597,0.03584 0.07116,0.05168 0.08102,0.110111 -0.0451,0.06441 -0.04865,0.161618 -0.07453,0.24247 -0.116344,0.365394 -0.0709,0.818045 0.09401,1.086572 0.05159,0.08085 0.174689,0.2588309 0.339337,0.190617 0.145776,-0.05817 0.113487,-0.24247 0.155385,-0.404088 0.0096,-0.03904 0.0033,-0.06467 0.02268,-0.09029 v 0.0063 c 0.0451,0.09046 0.09064,0.177633 0.132446,0.268354 0.100329,0.158328 0.275019,0.3233219 0.420535,0.4330009 0.07748,0.05852 0.138852,0.158588 0.235892,0.194339 v -0.0097 h -0.0064 c -0.01965,-0.029 -0.04839,-0.04198 -0.07419,-0.06449 -0.05835,-0.05826 -0.122923,-0.129416 -0.168197,-0.193994 -0.135562,-0.1811819 -0.255542,-0.3817539 -0.362017,-0.5887319 -0.05211,-0.100416 -0.09704,-0.210182 -0.139025,-0.310425 -0.01956,-0.03869 -0.01956,-0.09704 -0.05203,-0.116517 -0.04865,0.07107 -0.119547,0.132619 -0.155039,0.219704 -0.06155,0.139284 -0.06795,0.310597 -0.09081,0.488749 l -0.01273,0.0062 c -0.103013,-0.02588 -0.138851,-0.132446 -0.177979,-0.222907 -0.09687,-0.229745 -0.113141,-0.598514 -0.02909,-0.863578 0.02251,-0.06778 0.119893,-0.281252 0.08103,-0.34583 -0.01948,-0.06189 -0.08423,-0.09713 -0.119721,-0.145863 -0.04172,-0.06129 -0.08743,-0.138851 -0.116517,-0.206892 -0.07756,-0.1810076 -0.116604,-0.3815806 -0.20014,-0.5625026 -0.03904,-0.08431 -0.106822,-0.171573 -0.161704,-0.249222 -0.06163,-0.08726 -0.129416,-0.14872 -0.178152,-0.252166 -0.0161,-0.03558 -0.0387,-0.09375 -0.01281,-0.132445 0.0063,-0.02597 0.01948,-0.03566 0.04527,-0.04216 0.0419,-0.0354 0.161618,0.0096 0.203602,0.02909 0.119894,0.04848 0.220136,0.09375 0.320206,0.161618 0.04527,0.03246 0.09384,0.09392 0.151923,0.110112 h 0.06804 c 0.103272,0.02251 0.219703,0.0062 0.316916,0.03549 0.171314,0.05505 0.326526,0.135821 0.465723,0.222993 0.423566,0.268613 0.772858,0.6502806 1.008662,1.1061346 0.0387,0.07427 0.05514,0.142314 0.09046,0.21979 0.06813,0.158588 0.152355,0.320293 0.219963,0.475505 0.06795,0.151922 0.132705,0.307048 0.229745,0.433261 0.04839,0.06787 0.242816,0.103446 0.329988,0.139024 0.06449,0.029 0.164907,0.0548 0.223079,0.09038 0.110025,0.06778 0.219617,0.145603 0.323063,0.2201359 0.05151,0.03878 0.213384,0.119634 0.222993,0.184385 m -3.298629,-2.8101755 a 0.50381179,0.50381179 0 0 0 -0.132358,0.01627 v 0.0065 h 0.0062 c 0.02606,0.05168 0.07133,0.08752 0.103619,0.132618 0.02606,0.05185 0.04865,0.103273 0.07419,0.155039 l 0.0062,-0.0064 c 0.04562,-0.03229 0.0683,-0.08406 0.0683,-0.161704 -0.01965,-0.02285 -0.02268,-0.04519 -0.03904,-0.06787 -0.01904,-0.03238 -0.06103,-0.04848 -0.08717,-0.07445"
     id="path8"
     inkscape:connector-curvature="0"
     style="fill:#5d87a1;stroke-width:0.0865656" />
  <path
     d="m -6.915499,13.761872 h 0.067 v -0.327911 h -0.100502 l -0.08198,0.223772 -0.08908,-0.223772 h -0.09678 v 0.327911 h 0.06328 V 13.51239 h 0.0035 l 0.09332,0.249482 h 0.04822 l 0.09297,-0.249482 z m -0.539737,0 h 0.0709 v -0.272335 h 0.0928 v -0.05566 h -0.26039 v 0.05566 h 0.09652 z"
     id="path10"
     inkscape:connector-curvature="0"
     style="fill:#f8981d;stroke-width:0.0865656" />
</svg>
