<?xml version="1.0" encoding="UTF-8" standalone="no"?>
<!-- Created with Inkscape (http://www.inkscape.org/) -->

<svg
   xmlns:osb="http://www.openswatchbook.org/uri/2009/osb"
   xmlns:dc="http://purl.org/dc/elements/1.1/"
   xmlns:cc="http://creativecommons.org/ns#"
   xmlns:rdf="http://www.w3.org/1999/02/22-rdf-syntax-ns#"
   xmlns:svg="http://www.w3.org/2000/svg"
   xmlns="http://www.w3.org/2000/svg"
   xmlns:sodipodi="http://sodipodi.sourceforge.net/DTD/sodipodi-0.dtd"
   xmlns:inkscape="http://www.inkscape.org/namespaces/inkscape"
   version="1.1"
   id="svg4518"
   width="1000"
   height="1000"
   viewBox="0 0 1000 1000"
   sodipodi:docname="pc.svg"
   inkscape:version="0.92.3 (2405546, 2018-03-11)">
  <metadata
     id="metadata4524">
    <rdf:RDF>
      <cc:Work
         rdf:about="">
        <dc:format>image/svg+xml</dc:format>
        <dc:type
           rdf:resource="http://purl.org/dc/dcmitype/StillImage" />
        <dc:title></dc:title>
      </cc:Work>
    </rdf:RDF>
  </metadata>
  <defs
     id="defs4522">
    <linearGradient
       id="linearGradient4546"
       osb:paint="solid">
      <stop
         style="stop-color:#000000;stop-opacity:1;"
         offset="0"
         id="stop4544" />
    </linearGradient>
  </defs>
  <sodipodi:namedview
     pagecolor="#ffffff"
     bordercolor="#666666"
     borderopacity="1"
     objecttolerance="10"
     gridtolerance="10"
     guidetolerance="10"
     inkscape:pageopacity="0"
     inkscape:pageshadow="2"
     inkscape:window-width="1920"
     inkscape:window-height="1017"
     id="namedview4520"
     showgrid="false"
     inkscape:zoom="0.36933798"
     inkscape:cx="-54.747213"
     inkscape:cy="853.47891"
     inkscape:window-x="-8"
     inkscape:window-y="-8"
     inkscape:window-maximized="1"
     inkscape:current-layer="g4528" />
  <g
     id="g4528"
     transform="translate(-373.64151,252.71699)">
    <path
       style="fill:#0088aa;fill-opacity:1;stroke:#0088aa;stroke-width:5;stroke-miterlimit:4;stroke-dasharray:none;stroke-opacity:1"
       d="m 1116.418,533.49168 c -1.0461,-0.27237 -2.3961,-0.89226 -3,-1.37754 -0.6038,-0.48528 -2.5067,-2.00887 -4.2285,-3.38577 -1.7218,-1.3769 -3.8593,-4.03919 -4.75,-5.91621 -1.4802,-3.11946 -1.6194,-26.80484 -1.6194,-275.61049 0,-248.8056429 0.1392,-272.491023 1.6194,-275.610493 0.8907,-1.87701 3.0282,-4.5393 4.75,-5.9162 1.7218,-1.3769 3.7945,-3.05917 4.606,-3.73838 1.1515,-0.96377 26.0779,-1.23492 113.5246,-1.23492 98.1068,0 112.2803,0.18664 113.9071,1.5 2.395,1.93351 8.6594,8.19788 10.5929,10.59284 1.3251,1.64138 1.5,33.6336701 1.5,274.407153 0,240.77348 -0.1749,272.76578 -1.5,274.40715 -1.9331,2.39447 -8.1975,8.65894 -10.5926,10.59285 -1.6239,1.31112 -15.7752,1.51796 -112.3826,1.64262 -60.7887,0.0784 -111.3807,-0.0802 -112.4269,-0.35261 z m 189.9123,-73.72983 c 1.8953,-0.79191 4.3542,-2.92941 5.4642,-4.75 1.9065,-3.12707 2.0175,-4.96969 2.0071,-33.31018 -0.012,-32.83492 -0.087,-33.30648 -5.894,-37.21998 -3.266,-2.20097 -4.1426,-2.28002 -25.2851,-2.28002 -24.2886,0 -26.2556,0.41514 -29.8429,6.29855 -1.8215,2.98741 -1.952,5.20718 -1.952,33.20145 0,41.40519 -1.5901,39.39896 31.2746,39.46086 15.8961,0.0299 21.5923,-0.29937 24.2281,-1.40068 z m -15.5102,-166.56018 c 2.6804,-2.68038 2.5203,-5.57061 -0.4744,-8.56533 l -2.4745,-2.47442 -70.1064,0.26988 c -68.0796,0.26207 -70.1475,0.32599 -71.5256,2.211 -1.8993,2.59789 -1.7942,6.48695 0.2359,8.73013 1.5734,1.73864 5.1209,1.82874 72,1.82874 69.0117,0 70.3829,-0.0379 72.345,-2 z m -0.068,-28.53125 c 0.567,-0.56719 1.3112,-2.43281 1.6538,-4.14583 0.4768,-2.3838 0.1292,-3.60829 -1.4813,-5.21875 -2.0988,-2.09881 -2.2823,-2.10417 -72.1041,-2.10417 -68.6667,0 -70.0381,0.0381 -72,2 -2.5637,2.56373 -2.5553,6.44475 0.02,9.0197 1.9933,1.99327 2.9415,2.01618 72.4503,1.75 46.6884,-0.17878 70.7782,-0.61734 71.4616,-1.30095 z m 0.5117,-30.69126 c 2.0952,-2.99128 1.9593,-5.37488 -0.4433,-7.77749 -1.962,-1.962 -3.3333,-2 -72.1713,-2 -63.8917,0 -70.3349,0.1481 -72,1.65499 -2.2435,2.0304 -2.3791,6.65179 -0.2573,8.77358 1.399,1.39901 9.3477,1.57143 72.4433,1.57143 h 70.8719 z m 0.5184,-30.02749 c 1.3844,-2.47484 1.3844,-3.02516 0,-5.5 l -1.5382,-2.75 -70.8756,-0.25675 c -64.8847,-0.23506 -71.0307,-0.1163 -72.7117,1.40498 -2.286,2.06878 -2.3689,6.10567 -0.1752,8.52965 1.5858,1.75235 4.8744,1.82375 72.7117,1.57874 l 71.0508,-0.25662 z m -12.6468,-76.82051 c 8.9472,-2.4845 15.1784,-13.67006 12.7139,-22.82243 -4.4048,-16.358306 -27.6145,-18.922986 -34.9077,-3.85732 -4.9591,10.24417 -1.0475,21.02714 9.3789,25.8544 4.6006,2.13002 7.4546,2.31383 12.8149,0.82535 z m 14.9392,-72.179483 c 0.9,-0.6875 1.9291,-2.46486 2.2869,-3.94968 0.5045,-2.09348 0.078,-3.27234 -1.8998,-5.25 l -2.5503,-2.55032 h -69.5455 c -68.2121,0 -69.5838,0.0383 -71.5454,2 -2.7177,2.71769 -2.6059,7.46219 0.2225,9.44329 1.9598,1.37273 10.4462,1.55671 71.8089,1.55671 54.1296,0 69.9498,-0.27766 71.2227,-1.25 z m 0,-24 c 0.9,-0.6875 1.9291,-2.46486 2.2869,-3.94968 0.5053,-2.09682 0.077,-3.27362 -1.9197,-5.26987 l -2.5702,-2.5702 -70.1064,0.26987 c -68.0796,0.26207 -70.1475,0.326 -71.5256,2.21101 -2.1493,2.93994 -1.7691,7.20031 0.8034,9.00216 1.9598,1.37273 10.4462,1.55671 71.8089,1.55671 54.1296,0 69.9498,-0.27766 71.2227,-1.25 z M 570.04262,509.64497 c -1.96049,-1.37319 -2.22251,-2.44023 -2.22251,-9.05103 v -7.49432 l 3.46788,-1.44898 c 2.86809,-1.19836 11.93806,-1.44897 52.44098,-1.44897 30.74382,0 49.19748,-0.36304 49.57589,-0.97532 0.98704,-1.59707 6.96593,-80.40784 6.24297,-82.29184 -0.62628,-1.63207 -8.61886,-1.73306 -137.44634,-1.73658 -134.87991,-0.004 -136.82685,-0.0315 -140.05178,-1.9977 -1.79872,-1.09668 -3.77702,-3.10589 -4.39623,-4.46491 -0.61921,-1.35901 -1.48115,-2.25134 -1.91543,-1.98294 -0.43428,0.2684 -1.06201,-1.43321 -1.39495,-3.78136 -0.33294,-2.34814 -0.47432,-97.65489 -0.31417,-211.79276 l 0.29117,-207.523413 3.91644,-4.23286 c 2.37633,-2.56832 5.37667,-4.62606 7.62975,-5.23275 2.4481,-0.65921 112.18999,-0.91261 322.08357,-0.74373 316.34184,0.25453 318.39184,0.26891 321.75714,2.25617 1.8628,1.1 4.2253,3.56797 5.25,5.48439 1.8004,3.36726 1.863,10.52816 1.8615,213.000003 -10e-4,197.47234 -0.102,209.71564 -1.75,212.99567 -0.9616,1.91403 -3.2775,4.50153 -5.1463,5.75 l -3.3979,2.26993 H 910.29467 c -118.49964,0 -136.3881,0.19089 -137.44695,1.46673 -0.96242,1.15965 -0.56282,9.69113 1.90868,40.75 1.71928,21.6058 3.36214,40.05458 3.6508,40.99729 0.48471,1.58295 4.25629,1.7359 49.31616,2 53.47509,0.31343 51.49724,0.0734 52.68283,6.39314 1.11457,5.94119 -0.32503,11.95287 -3.17306,13.25052 -1.84435,0.84034 -42.48594,1.14232 -153.73757,1.14232 -135.25689,0 -151.46519,-0.16443 -153.45294,-1.5567 z M 1040.8858,386.16649 c 1.9025,-1.01818 1.9343,-4.33422 1.9343,-201.89301 0,-182.2335829 -0.1467,-200.914113 -1.5818,-201.464823 -0.87,-0.33384 -142.97996,-0.60698 -315.79998,-0.60698 -243.05861,0 -314.48998,0.27175 -315.41822,1.2 -0.92534,0.92534 -1.2,47.0516 -1.2,201.532213 v 200.33223 l 2.25,0.90439 c 3.30378,1.32795 627.3343,1.32397 629.8157,-0.004 z"
       id="path4530"
       inkscape:connector-curvature="0" />
  </g>
</svg>
